Coordinates
version=1
nRows=21
nColumns=12
inDegrees=yes

Units are S.I. units (second, meters, Newtons, ...)
Angles are in degrees

endheader
time	SC_y	SC_z	SC_x	AC_y	AC_z	AC_x	GH_y	GH_z	GH_yy	EL_x	PS_y
       0.0              -18.97          27.13          6.527          48.08          1.251         -7.284         -35.94         -4.965         -50.25          110.8          146.6
   0.03389              -18.97          27.13          6.537          48.08          1.251         -7.283         -35.94         -4.952         -50.24          110.8          146.6
   0.06777              -18.98          27.13          6.548          48.08           1.25         -7.283         -35.94         -4.939         -50.23          110.8          146.6
    0.1017              -18.99          27.12           6.56          48.08          1.249         -7.282         -35.94         -4.924         -50.22          110.8          146.6
    0.1355              -18.99          27.12          6.572          48.08          1.248         -7.281         -35.95         -4.908         -50.21          110.8          146.6
    0.1694               -19.0          27.11          6.585          48.08          1.247          -7.28         -35.95         -4.892          -50.2          110.8          146.6
    0.2033              -19.01          27.11          6.599          48.08          1.246         -7.279         -35.95         -4.874         -50.18          110.8          146.6
    0.2372              -19.02           27.1          6.613          48.08          1.245         -7.278         -35.95         -4.855         -50.17          110.8          146.6
    0.2711              -19.02           27.1          6.629          48.08          1.244         -7.277         -35.96         -4.835         -50.15          110.8          146.6
     0.305              -19.03          27.09          6.646          48.08          1.243         -7.276         -35.96         -4.813         -50.14          110.8          146.5
    0.3389              -19.04          27.09          6.665          48.08          1.241         -7.275         -35.96          -4.79         -50.12          110.8          146.5
    0.3728              -19.05          27.08          6.684          48.08           1.24         -7.274         -35.97         -4.765          -50.1          110.8          146.5
    0.4066              -19.07          27.07          6.705          48.07          1.239         -7.272         -35.97         -4.737         -50.08          110.9          146.5
    0.4405              -19.08          27.06          6.728          48.07          1.237         -7.271         -35.97         -4.708         -50.06          110.9          146.5
    0.4744              -19.09          27.06          6.753          48.07          1.235         -7.269         -35.98         -4.676         -50.03          110.9          146.5
    0.5083              -19.11          27.05           6.78          48.07          1.233         -7.267         -35.98         -4.642         -50.01          110.9          146.4
    0.5422              -19.12          27.04          6.809          48.07          1.231         -7.265         -35.99         -4.605         -49.98          110.9          146.4
    0.5761              -19.14          27.02          6.841          48.07          1.229         -7.263         -35.99         -4.564         -49.95          110.9          146.4
      0.61              -19.16          27.01          6.876          48.07          1.226         -7.261          -36.0          -4.52         -49.91          110.9          146.4
    0.6439              -19.18           27.0          6.914          48.07          1.223         -7.258         -36.01         -4.471         -49.87          110.9          146.3
    0.6777               -19.2          26.98          6.955          48.07           1.22         -7.256         -36.01         -4.417         -49.83          110.9          146.3
